<svg id="Capa_1" enable-background="new 0 0 512 512" height="512" viewBox="0 0 512 512" width="512" xmlns="http://www.w3.org/2000/svg" xmlns:xlink="http://www.w3.org/1999/xlink"><linearGradient id="SVGID_1_" gradientUnits="userSpaceOnUse" x1="256" x2="256" y1="512" y2="0"><stop offset="0" stop-color="#fd3a84"/><stop offset="1" stop-color="#ffa68d"/></linearGradient><g><g><path d="m256 0c-107.523 0-195 87.477-195 195 0 43.811 13.988 86.486 42.762 130.466 24.2 36.987 54.544 68.489 81.316 96.282 28.758 29.856 55.922 58.056 55.922 75.252 0 8.284 6.716 15 15 15s15-6.716 15-15c0-17.196 27.164-45.396 55.922-75.252 26.772-27.794 57.116-59.296 81.316-96.282 28.774-43.98 42.762-86.655 42.762-130.466 0-107.523-87.477-195-195-195zm49.315 400.936c-19.958 20.719-37.585 39.019-49.315 56.216-11.73-17.197-29.357-35.496-49.315-56.216-51.541-53.508-115.685-120.099-115.685-205.936 0-90.981 74.019-165 165-165s165 74.019 165 165c0 85.837-64.144 152.428-115.685 205.936zm-49.315-280.936c-41.355 0-75 33.645-75 75s33.645 75 75 75 75-33.645 75-75-33.645-75-75-75zm0 120c-24.813 0-45-20.187-45-45s20.187-45 45-45 45 20.187 45 45-20.187 45-45 45z" fill="url(#SVGID_1_)"/></g></g></svg>